<?xml version="1.0" encoding="utf-8"?>
<!-- Generator: Adobe Illustrator 19.1.0, SVG Export Plug-In . SVG Version: 6.00 Build 0)  -->
<svg version="1.1" id="Layer_1" xmlns="http://www.w3.org/2000/svg" xmlns:xlink="http://www.w3.org/1999/xlink" x="0px" y="0px"
	 viewBox="0 0 148.535431 17.801575" enable-background="new 0 0 148.535431 17.801575" xml:space="preserve">
<g>
	<polygon fill="#BBE5F3" points="24.281393,14.443382 27.480135,8.902913 25.880789,6.132679 22.68195,11.673147 	"/>
	<g>
		<g>
			<path fill="#186D94" d="M38.658985,0.587311h0.806641v16.626953h-0.806641V0.587311z"/>
			<path fill="#186D94" d="M44.301563,0.587311h0.857422l7.355469,12.192871l1.915039,3.275391h0.100586
				c-0.050781-1.612305-0.100586-3.124023-0.100586-4.686035V0.587311h0.755859v16.626953h-0.856445L46.972462,5.021393
				l-1.915039-3.275391h-0.100586c0.050781,1.562012,0.100586,2.972656,0.100586,4.534668v10.933594h-0.755859V0.587311z"/>
			<path fill="#186D94" d="M63.64922,1.292877h-5.390625V0.587311h11.587894v0.705566h-5.390625v15.921387H63.64922V1.292877z"/>
			<path fill="#186D94" d="M72.920708,0.587311h8.917969v0.705566h-8.112305v6.701172h6.801758v0.705078h-6.801758v7.80957h8.364258
				v0.705566h-9.169922V0.587311z"/>
			<path fill="#186D94" d="M94.786919,17.214264l-4.685547-7.859863h-3.728516v7.859863h-0.805664V0.587311h4.584961
				c3.274414,0,5.339844,1.209473,5.339844,4.282715c0,2.64502-1.712891,4.182129-4.483398,4.434082l4.735352,7.910156H94.786919z
				 M89.849419,8.648834c3.073242,0,4.786133-1.208984,4.786133-3.778809c0-2.620117-1.712891-3.577148-4.786133-3.577148h-3.476563
				v7.355957H89.849419z"/>
			<path fill="#186D94" d="M99.270317,0.587311h0.857422l7.355469,12.192871l1.915039,3.275391h0.100586
				c-0.050781-1.612305-0.100586-3.124023-0.100586-4.686035V0.587311h0.755859v16.626953h-0.856445l-7.356445-12.192871
				l-1.915039-3.275391h-0.100586c0.050781,1.562012,0.100586,2.972656,0.100586,4.534668v10.933594h-0.755859V0.587311z"/>
			<path fill="#186D94" d="M122.39727,11.268951h-6.777344l-2.09082,5.945313h-0.805664l5.945313-16.626953h0.705078
				l5.945313,16.626953H124.4627L122.39727,11.268951z M122.145317,10.563385l-1.15918-3.325195
				c-0.705078-2.015625-1.30957-3.728516-1.914063-5.794434h-0.101563c-0.604492,2.065918-1.208984,3.778809-1.914063,5.794434
				l-1.18457,3.325195H122.145317z"/>
			<path fill="#186D94" d="M127.889458,0.587311h0.805656v15.921387h7.80957v0.705566h-8.615227V0.587311z"/>
			<path fill="#186D94" d="M138.067184,14.443268c1.208984,1.410645,2.972656,2.317383,4.987305,2.317383
				c2.670898,0,4.383789-1.460938,4.383789-3.577148c0-2.216797-1.411133-2.922363-3.073242-3.678223L141.7957,8.346588
				c-1.411133-0.629883-3.375977-1.612305-3.375977-4.081055c0-2.368164,2.014648-3.980469,4.685547-3.980469
				c2.015625,0,3.577148,0.932129,4.53418,1.964844l-0.503906,0.554199c-0.957031-1.058105-2.317383-1.763184-4.030273-1.763184
				c-2.317383,0-3.879883,1.259766-3.879883,3.174316c0,2.06543,1.738281,2.84668,2.922852,3.375488l2.569336,1.15918
				c1.838867,0.831055,3.527344,1.813477,3.527344,4.383301c0,2.519043-2.066406,4.383301-5.19043,4.383301
				c-2.46875,0-4.282227-1.058105-5.541992-2.519043L138.067184,14.443268z"/>
		</g>
	</g>
	<polygon fill="#186D94" points="17.883812,3.362445 16.284416,0.59221 13.085625,0.59221 14.68502,3.362445 	"/>
	<polygon fill="#00557C" points="30.678976,3.362445 32.278374,0.59221 16.284416,0.59221 17.883812,3.362445 	"/>
	<polygon fill="#3488AD" points="14.68502,3.362445 17.883812,3.362445 22.681999,11.673147 21.082603,14.443382 	"/>
	<polygon fill="#81C1DC" points="22.681997,17.213615 24.281393,14.443382 22.68195,11.673147 21.082603,14.443382 	"/>
	<polygon fill="#00557C" points="5.088646,14.443382 11.486278,3.362445 9.886882,0.59221 1.889904,14.443381 	"/>
	<polygon fill="#BBE5F3" points="19.483206,17.213615 17.883812,14.443382 5.088646,14.443382 3.489251,17.213615 	"/>
	<polygon fill="#3488AD" points="0.290509,17.213615 3.489251,17.213615 5.088646,14.443382 1.889904,14.443381 	"/>
</g>
</svg>
