<?xml version="1.0" encoding="utf-8"?>
<!-- Generator: Adobe Illustrator 19.2.0, SVG Export Plug-In . SVG Version: 6.00 Build 0)  -->
<svg version="1.1" id="Layer_1" xmlns="http://www.w3.org/2000/svg" xmlns:xlink="http://www.w3.org/1999/xlink" x="0px" y="0px"
	 viewBox="0 0 32.57 17.802" enable-background="new 0 0 32.57 17.802" xml:space="preserve">
<polygon fill="#BBE5F3" points="24.281,14.443 27.48,8.903 25.881,6.133 22.682,11.673 "/>
<polygon fill="#186D94" points="17.884,3.362 16.284,0.592 13.086,0.592 14.685,3.362 "/>
<polygon fill="#00557C" points="30.679,3.362 32.278,0.592 16.284,0.592 17.884,3.362 "/>
<polygon fill="#3488AD" points="14.685,3.362 17.884,3.362 22.682,11.673 21.083,14.443 "/>
<polygon fill="#81C1DC" points="22.682,17.214 24.281,14.443 22.682,11.673 21.083,14.443 "/>
<polygon fill="#00557C" points="5.089,14.443 11.486,3.362 9.887,0.592 1.89,14.443 "/>
<polygon fill="#BBE5F3" points="19.483,17.214 17.884,14.443 5.089,14.443 3.489,17.214 "/>
<polygon fill="#3488AD" points="0.291,17.214 3.489,17.214 5.089,14.443 1.89,14.443 "/>
</svg>
